<svg xmlns="http://www.w3.org/2000/svg" xmlns:xlink="http://www.w3.org/1999/xlink" id="Layer_1" x="0px" y="0px" viewBox="0 0 493.7 350.64" style="enable-background:new 0 0 493.7 350.64;" xml:space="preserve">
<style type="text/css">
	.st0{fill:#E12228;}
	.st1{fill:#FFCD05;}
	.st2{fill:#FFFFFF;}
	.st3{fill-rule:evenodd;clip-rule:evenodd;fill:#FFFFFF;}
</style>
<polygon class="st0" points="110.65,79.89 59.32,129.16 54.98,128.05 34.71,122.85 25.56,120.51 23.21,129.66 2.35,211.09 0,220.23   0,220.24 9.16,222.59 29.42,227.78 38.58,230.13 38.68,229.74 38.77,230.17 44.49,231.64 55.92,234.57 55.92,322.11 242.06,322.11   427.36,322.11 427.36,245.55 429.12,246.12 438.13,248.96 440.99,239.95 450.82,208.86 484.45,169.4 493.7,158.55 480.11,154.26   458.53,147.43 452.58,145.55 452.59,145.55 447.87,144.06 441.86,142.16 436.62,140.5 373.46,79.89 242.06,28.01 "></polygon>
<polygon class="st1" points="75.88,91.52 80.15,97.88 54.19,121.54 44.54,107.18 "></polygon>
<polygon class="st1" points="72.55,76.21 74.09,83.71 41.09,95.75 37.62,78.8 "></polygon>
<polygon class="st1" points="75.29,60.77 73.87,68.3 38.77,66.91 41.98,49.92 "></polygon>
<polygon class="st1" points="83.68,47.53 79.5,53.95 47.56,39.36 56.98,24.85 "></polygon>
<polygon class="st1" points="96.46,38.46 90.16,42.82 66.14,17.19 80.37,7.35 "></polygon>
<polygon class="st1" points="108.64,0.03 91.75,3.74 104.25,36.57 111.73,34.92 108.65,0.03 "></polygon>
<polygon class="st1" points="119.65,36.13 127.2,37.45 137.59,3.99 120.55,1.01 "></polygon>
<polygon class="st1" points="140.55,45.65 134.08,41.56 148.23,9.41 162.86,18.64 "></polygon>
<polygon class="st1" points="149.8,58.3 145.35,52.07 170.65,27.69 180.68,41.78 "></polygon>
<path class="st2" d="M332.63,162.87l-8.32,11.36c-2.17-2.27-4.67-4.11-7.5-5.51c-2.22-1.09-4.28-1.65-6.18-1.65  c-0.53,0-1.04,0.05-1.55,0.13c-4.14,0.7-7.08,3.51-8.8,8.44c-1.73,4.93-2.03,10.76-0.91,17.46c1.14,6.8,3.29,12.23,6.44,16.3  c2.67,3.46,5.77,5.19,9.28,5.19c0.62,0,1.26-0.06,1.91-0.16c2.4-0.41,4.58-1.62,6.54-3.65c1.96-2.03,3.73-4.72,5.3-8.05l11.78,7.74  c-1.81,6.48-4.64,11.71-8.48,15.7c-3.85,3.99-9,6.53-15.47,7.61c-1.72,0.29-3.4,0.43-5.05,0.43c-7.41,0-14.11-2.92-20.11-8.74  c-7.33-7.12-12-16.68-14.01-28.7c-2.03-12.1-0.74-22.7,3.86-31.83c4.6-9.12,11.63-14.47,21.07-16.06c1.8-0.3,3.55-0.45,5.25-0.45  c4.25,0,8.19,0.94,11.83,2.83C324.59,153.91,328.96,157.78,332.63,162.87 M442.38,204.18l34.88-40.91l-21.58-6.83l-14.67,17.17  l-2-22.44l-21.71-6.86l5.13,53.56l-10.41,32.92l19.94,6.31L442.38,204.18z M223.97,162.96l-11.92-1.14l-7.98,83.68l18.81,1.79  l3.69-38.64l24.16,41.3l11.92,1.13l7.98-83.67l-18.81-1.79l-3.69,38.64L223.97,162.96z M403.28,249.19l2.04-84.03l-20.91-0.51  l-0.78,32l-17.01-0.42l0.78-31.99l-20.91-0.51l-2.04,84.03l20.91,0.51l0.78-32.12l17.01,0.41l-0.78,32.12L403.28,249.19z   M66.6,140.78l-21.37,25.35l7.41-28.93l-20.26-5.19l-20.87,81.42l20.27,5.19l7.91-30.89l7.15,34.75l22.66,5.8l-9.57-46.94  l29.45-34.73L66.6,140.78z M177.15,230.02c7.21-1.2,12.9-4.77,17.06-10.7c4.17-5.94,5.61-12.75,4.32-20.46l-9.51-57.06l-20.64,3.44  l9.51,57.05c0.33,1.99,0.09,3.6-0.73,4.85c-0.82,1.24-1.97,1.99-3.46,2.24c-0.32,0.05-0.63,0.08-0.94,0.08  c-1.12,0-2.14-0.36-3.06-1.07c-1.17-0.91-1.93-2.36-2.26-4.35l-9.51-57.05l-20.63,3.44l9.51,57.06c1.28,7.7,4.86,13.69,10.72,17.95  c4.58,3.33,9.56,4.99,14.95,4.99C174.02,230.41,175.57,230.28,177.15,230.02 M103.88,248.48H82.96v-84.05h22.05  c8.73,0,16.17,3.06,22.3,9.19s9.2,13.55,9.2,22.28c0,8.9-3.15,16.41-9.45,22.54l14.74,30.05h-23.52l-10.24-21.17h-3.16h-1.01  L103.88,248.48L103.88,248.48z M103.88,207.4c3.23,0,5.98-1.14,8.28-3.4c2.29-2.27,3.44-5,3.44-8.19c0-3.11-1.15-5.8-3.44-8.07  c-2.3-2.27-5.05-3.4-8.28-3.4L103.88,207.4L103.88,207.4z"></path>
<path class="st3" d="M193.76,113.67h0.9c2.11,0,4.13-0.29,4.13-2.76c0-2.54-1.87-2.82-4.06-2.82h-0.97V113.67z M181.27,99.05  l15.41-0.01c7.89,0,14.51,3.18,14.51,11.44c0.01,5.02-2.03,7.14-6.69,8.62l9.7,12.93h-14.65l-5.79-11.01l0.01,11.01l-12.48,0.01  L181.27,99.05z M221.86,99.95l12.78-0.01l0.01,33.01h-12.78L221.86,99.95z M247.03,121.19l0.67,0.42c2.26,1.7,5.04,3.04,7.96,3.04  c1.2,0,3.24-0.5,3.24-1.98s-1.66-1.62-2.86-1.84l-2.56-0.42c-4.96-0.85-9.09-3.61-9.09-8.69c0-7.84,7.51-12.23,15.18-12.23  c3.98,0,7.67,0.92,11.05,2.89l-3.38,8.41c-2.19-1.41-4.66-2.47-7.45-2.47c-1.05,0-2.7,0.43-2.7,1.77c0,1.2,1.58,1.34,2.56,1.62  l2.85,0.57c5.42,1.13,9.33,3.88,9.33,9.46c0,7.85-7.67,11.67-15.18,11.67c-4.44,0-9.54-1.07-13.53-2.97L247.03,121.19z   M292.67,114.73h1.28c2.26,0,4.66-0.35,4.66-3.04c0-2.54-2.62-2.69-4.66-2.69h-1.27L292.67,114.73z M280.42,99.95l16.16,0.01  c8.19,0,14.2,3.96,14.2,12.16c0,6.72-4.43,10.88-11.58,10.88h-6.54v9.97h-12.24V99.95z M330.09,109.01l3.79-9.06h14.35l-12.02,18.8  v14.21h-12.4v-14.21l-12.25-18.8h14.43L330.09,109.01z M139.25,133.03V99.87h12.43v14.14l8.05-14.14h14.36l-10.65,16.33l12.14,16.83  h-15.35l-8.56-13.86v13.86H139.25z"></path>
<path class="st1" d="M140.25,278.7c-1.15-1.03-2.32-1.81-3.52-2.32c-1.19-0.51-2.46-0.76-3.78-0.76c-2.06,0-3.71,0.6-4.96,1.79  c-1.25,1.18-1.88,2.78-1.88,4.76c0,1.93,0.59,3.47,1.79,4.62c1.2,1.16,2.8,1.73,4.81,1.73c1.21,0,2.45-0.24,3.69-0.73  c1.26-0.49,2.62-1.26,4.11-2.32l-0.41,12.38c-1.37,0.52-2.74,0.92-4.11,1.18c-1.37,0.26-2.74,0.39-4.12,0.39  c-1.7,0-3.34-0.18-4.92-0.54c-1.59-0.36-3-0.87-4.28-1.54c-3.09-1.67-5.42-3.8-7.01-6.36s-2.39-5.5-2.39-8.83  c0-2.46,0.45-4.74,1.35-6.84c0.9-2.09,2.21-3.95,3.93-5.55c1.74-1.62,3.76-2.85,6.04-3.67c2.3-0.84,4.77-1.25,7.43-1.25  c1.42,0,2.82,0.14,4.19,0.41c1.38,0.28,2.73,0.69,4.03,1.25v12.2H140.25z M152.46,298.6L152.46,298.6h12.6V287h7.67v11.6h12.58  v-32.92h-12.58v10.94h-7.67v-10.94h-12.6V298.6z M197.26,298.6L197.26,298.6h12.79v-32.92h-12.79V298.6z M247.02,278.7L247.02,278.7  v-12.19c-1.31-0.56-2.65-0.97-4.03-1.25c-1.38-0.27-2.77-0.41-4.19-0.41c-2.66,0-5.14,0.41-7.42,1.25c-2.29,0.83-4.3,2.05-6.04,3.67  c-1.72,1.6-3.03,3.45-3.93,5.55c-0.9,2.1-1.35,4.38-1.35,6.84c0,3.33,0.79,6.27,2.38,8.83c1.58,2.56,3.92,4.69,7.01,6.36  c1.28,0.66,2.7,1.17,4.29,1.54c1.57,0.36,3.21,0.54,4.92,0.54c1.37,0,2.74-0.13,4.11-0.39s2.74-0.66,4.12-1.18l0.4-12.38  c-1.48,1.07-2.85,1.83-4.1,2.32c-1.25,0.48-2.48,0.73-3.69,0.73c-2.01,0-3.62-0.57-4.8-1.73c-1.2-1.15-1.8-2.69-1.8-4.62  c0-1.98,0.63-3.57,1.88-4.76s2.91-1.79,4.97-1.79c1.32,0,2.59,0.25,3.78,0.76C244.71,276.9,245.87,277.67,247.02,278.7   M258.39,298.6L258.39,298.6h12.34v-13.76l8.49,13.76h15.23l-12.05-16.71l10.56-16.21h-14.24l-7.98,14.03v-14.03H258.4v32.92H258.39  z M301.89,298.6L301.89,298.6h23.69v-8.93h-11.35v-3.46h10.04v-8.43h-10.04v-3.17h11.07v-8.93h-23.41V298.6z M335.89,298.6  L335.89,298.6h11.8l-0.04-17.09l10.77,17.09h12.43v-32.92h-11.78l0.04,17.22l-10.88-17.22h-12.34L335.89,298.6L335.89,298.6z"></path>
<path class="st0" d="M62.38,334.31h8.72v3.83h-4.7v2.35h3.71v3.83H66.4v6.16h-4.02V334.31z M85.02,350.47h-4.53l-1.97-4.07h-0.61  h-0.19v4.07h-4.03v-16.16h4.24c1.68,0,3.11,0.59,4.29,1.77s1.77,2.6,1.77,4.29c0,1.71-0.61,3.15-1.82,4.33L85.02,350.47z   M77.72,342.57c0.62,0,1.15-0.22,1.59-0.65s0.66-0.96,0.66-1.57c0-0.6-0.22-1.12-0.66-1.55c-0.44-0.44-0.97-0.66-1.59-0.66V342.57z   M87.03,334.31h9.7v3.83h-5.67v2.35h5.67v3.83h-5.67v2.32h5.67v3.83h-9.7V334.31z M104.79,350.67c-0.87,0-1.74-0.18-2.61-0.54  c-0.88-0.36-1.68-0.9-2.4-1.61l0.56-3.49c0.97,0.74,1.82,1.24,2.57,1.5s1.41,0.39,2.02,0.39c0.33,0,0.64-0.08,0.92-0.23  c0.27-0.15,0.41-0.4,0.41-0.76c0-0.55-0.68-1.14-2.05-1.78c-1.36-0.64-2.47-1.3-3.32-2s-1.27-1.79-1.27-3.28  c0-1.35,0.56-2.48,1.67-3.39s2.43-1.36,3.95-1.36c1.84,0,3.5,0.79,4.96,2.35l-1.41,2.99c-0.76-0.68-1.42-1.12-1.97-1.31  c-0.56-0.19-1.1-0.29-1.61-0.29c-0.37,0-0.69,0.08-0.95,0.25s-0.39,0.39-0.39,0.67c0,0.54,0.72,1.13,2.15,1.79s2.54,1.31,3.33,1.95  c0.79,0.64,1.18,1.7,1.18,3.19c0,1.5-0.58,2.7-1.73,3.61C107.65,350.22,106.31,350.67,104.79,350.67 M120.98,340.46v-6.15h4.03  v16.16h-4.03v-6.18h-3.27v6.18h-4.03v-16.16h4.03v6.15H120.98z M133.05,346.64h4.51v3.83h-8.53v-16.16h4.02V346.64z M137.92,334.31  h4.37l1.67,4l1.69-4H150l-4.02,9.52v6.64h-4.02v-6.64L137.92,334.31z M168.63,350.47v-7.61l-2.43,4.17h-1.21l-2.43-4.17v7.61h-3.63  v-16.16h3.2l3.46,6.11l3.49-6.11h3.17v16.16H168.63z M181.98,350.47v-4.24h-2.03v4.24h-4.02v-11.1c0-1.49,0.49-2.74,1.47-3.74  c0.98-1.01,2.17-1.52,3.57-1.52c1.42,0,2.62,0.5,3.59,1.51c0.97,1,1.45,2.25,1.45,3.75v11.1L181.98,350.47L181.98,350.47z   M181.98,339.37c0-0.81-0.34-1.21-1.02-1.21c-0.29,0-0.53,0.11-0.73,0.32c-0.19,0.21-0.29,0.51-0.29,0.9v3.03h2.03v-3.04H181.98z   M201.64,342.4c0,2.22-0.71,4.11-2.13,5.69c-1.42,1.59-3.13,2.38-5.14,2.38h-4.72v-16.16h4.72c2,0,3.72,0.79,5.14,2.37  C200.92,338.27,201.64,340.17,201.64,342.4 M197.32,342.39c0-1.2-0.3-2.21-0.89-3.03c-0.59-0.82-1.32-1.23-2.18-1.23h-0.59v8.5h0.59  c0.84,0,1.57-0.41,2.17-1.23C197.02,344.58,197.32,343.58,197.32,342.39 M204.98,334.31h9.69v3.83H209v2.35h5.67v3.83H209v2.32h5.67  v3.83h-9.69V334.31z M244.58,334.31c1.67,0,3.09,0.59,4.28,1.78c1.18,1.18,1.78,2.61,1.78,4.28c0,1.68-0.59,3.11-1.77,4.29  c-1.19,1.18-2.62,1.77-4.31,1.77h-0.41v4.05h-4.02v-16.16L244.58,334.31L244.58,334.31z M244.14,338.14v4.46h0.2  c0.63,0,1.17-0.22,1.61-0.66c0.45-0.44,0.67-0.97,0.67-1.59c0-0.6-0.22-1.12-0.67-1.56c-0.44-0.44-0.98-0.66-1.61-0.66h-0.2V338.14z   M253.45,334.31h9.7v3.83h-5.68v2.35h5.68v3.83h-5.68v2.32h5.68v3.83h-9.7V334.31z M278.09,350.47h-4.52l-1.97-4.07h-0.61h-0.2v4.07  h-4.02v-16.16h4.24c1.68,0,3.11,0.59,4.29,1.77c1.18,1.18,1.77,2.6,1.77,4.29c0,1.71-0.61,3.15-1.82,4.33L278.09,350.47z   M270.8,342.57c0.62,0,1.15-0.22,1.59-0.65c0.45-0.43,0.66-0.96,0.66-1.57c0-0.6-0.22-1.12-0.66-1.55  c-0.44-0.44-0.97-0.66-1.59-0.66V342.57z M280.11,334.31h8.73v3.83h-4.71v2.35h3.71v3.83h-3.71v6.16h-4.02L280.11,334.31  L280.11,334.31z M291.42,334.31h9.7v3.83h-5.67v2.35h5.67v3.83h-5.67v2.32h5.67v3.83h-9.7V334.31z M310.38,350.67  c-1.84,0-3.34-0.79-4.51-2.37c-1.16-1.58-1.75-3.55-1.75-5.89c0-2.36,0.58-4.33,1.75-5.91c1.17-1.59,2.67-2.38,4.51-2.38  c1.23,0,2.28,0.34,3.16,1s1.59,1.53,2.12,2.61l-1.94,1.9c-0.34-0.5-0.75-0.93-1.25-1.29c-0.49-0.35-0.96-0.53-1.42-0.53  c-0.81,0-1.45,0.44-1.94,1.32s-0.73,1.97-0.73,3.28c0,1.33,0.23,2.43,0.7,3.3s1.12,1.31,1.97,1.31c0.47,0,0.92-0.16,1.36-0.48  c0.44-0.32,0.86-0.78,1.26-1.36l1.99,1.84c-0.55,1.17-1.25,2.08-2.11,2.71C312.7,350.35,311.64,350.67,310.38,350.67 M316.44,338.14  v-3.83H327v3.83h-3.27v12.33h-4.02v-12.33H316.44z M333.43,346.64h4.51v3.83h-8.53v-16.16h4.02V346.64z M338.29,334.31h4.38l1.67,4  l1.69-4h4.35l-4.02,9.52v6.64h-4.02v-6.64L338.29,334.31z M364.93,350.67c-1.84,0-3.34-0.79-4.51-2.37  c-1.16-1.58-1.74-3.55-1.74-5.89c0-2.36,0.58-4.33,1.74-5.91c1.16-1.59,2.67-2.38,4.51-2.38c1.23,0,2.28,0.34,3.16,1  s1.59,1.53,2.12,2.61l-1.94,1.9c-0.34-0.5-0.75-0.93-1.25-1.29c-0.5-0.35-0.97-0.53-1.42-0.53c-0.81,0-1.46,0.44-1.94,1.32  s-0.72,1.97-0.72,3.28c0,1.33,0.23,2.43,0.7,3.3s1.12,1.31,1.97,1.31c0.46,0,0.92-0.16,1.36-0.48s0.86-0.78,1.26-1.36l1.98,1.84  c-0.54,1.17-1.25,2.08-2.11,2.71C367.25,350.35,366.19,350.67,364.93,350.67 M378.31,350.47v-4.24h-2.03v4.24h-4.02v-11.1  c0-1.49,0.49-2.74,1.47-3.74c0.98-1.01,2.17-1.52,3.58-1.52c1.42,0,2.61,0.5,3.59,1.51c0.97,1,1.45,2.25,1.45,3.75v11.1  L378.31,350.47L378.31,350.47z M378.31,339.37c0-0.81-0.34-1.21-1.01-1.21c-0.29,0-0.54,0.11-0.73,0.32  c-0.19,0.21-0.29,0.51-0.29,0.9v3.03h2.03L378.31,339.37L378.31,339.37z M387.23,350.67c-0.66,0-1.31-0.12-1.95-0.35  s-1.18-0.54-1.63-0.93l0.48-2.84c0.59,0.34,1.15,0.51,1.7,0.51c0.52,0,0.94-0.19,1.28-0.58c0.33-0.38,0.5-0.98,0.5-1.77v-10.4h4.02  v11.15c0,1.81-0.42,3.13-1.26,3.96C389.51,350.25,388.46,350.67,387.23,350.67 M399.9,346.64c0.29,0,0.54-0.1,0.73-0.31  s0.29-0.51,0.29-0.9v-11.12h4.02v11.12c0,1.5-0.49,2.75-1.46,3.74c-0.98,0.99-2.17,1.49-3.58,1.49c-1.4,0-2.6-0.5-3.57-1.49  c-0.98-0.99-1.47-2.24-1.47-3.74v-11.12h4.02v11.12c0,0.38,0.1,0.69,0.29,0.9C399.37,346.54,399.61,346.64,399.9,346.64   M416.26,334.31h3.63v16.16h-2.3l-5.38-7.47v7.47h-3.64v-16.16h2.3l5.38,7.46v-7.46H416.26z"></path>
<path class="st0" d="M231.33,340.59c0,1.74-1.41,3.14-3.14,3.14c-1.74,0-3.14-1.4-3.14-3.14c0-1.73,1.41-3.14,3.14-3.14  S231.33,338.86,231.33,340.59"></path>
<path class="st1" d="M381.13,265.69c1.7,0,3.15,0.6,4.34,1.79c1.2,1.2,1.79,2.66,1.79,4.37c0,1.7-0.6,3.15-1.79,4.35  s-2.64,1.79-4.34,1.79s-3.15-0.6-4.34-1.79c-1.2-1.2-1.79-2.65-1.79-4.35c0-1.69,0.59-3.14,1.79-4.35  C377.99,266.29,379.44,265.69,381.13,265.69 M377.62,275.45c0.47,0.48,1.01,0.85,1.63,1.1c0.62,0.26,1.25,0.38,1.9,0.38  c0.67,0,1.3-0.12,1.89-0.37c0.6-0.25,1.26-0.75,1.99-1.5s1.1-1.83,1.1-3.24c0-1.39-0.37-2.46-1.09-3.21  c-0.73-0.74-1.4-1.24-2.01-1.49s-1.25-0.37-1.91-0.37c-0.65,0-1.27,0.12-1.88,0.37c-0.6,0.24-1.14,0.61-1.61,1.09  c-0.48,0.48-0.84,1.04-1.1,1.67c-0.26,0.63-0.39,1.28-0.39,1.95C376.14,273.23,376.63,274.43,377.62,275.45 M378.91,268.25h2.21  c0.46,0,0.8,0.03,1.01,0.08s0.47,0.19,0.77,0.42c0.3,0.23,0.48,0.48,0.54,0.76s0.1,0.48,0.11,0.59s0.01,0.22,0.01,0.3  c0,0.46-0.12,0.85-0.36,1.16s-0.6,0.53-1.06,0.67l-0.13,0.03l1.97,3.03l-1.67-0.01l-1.97-3.19v3.19h-1.43L378.91,268.25  L378.91,268.25z M380.89,271.52c0.67,0,1.04-0.18,1.11-0.53s0.11-0.55,0.11-0.61c0-0.3-0.1-0.54-0.3-0.71  c-0.2-0.17-0.49-0.26-0.86-0.26h-0.59v2.11H380.89z"></path>
</svg>